<svg xmlns="http://www.w3.org/2000/svg" xmlns:xlink="http://www.w3.org/1999/xlink" width="500" zoomAndPan="magnify" viewBox="0 0 375 374.999991" height="500" preserveAspectRatio="xMidYMid meet" version="1.0"><defs><clipPath id="7eba037df7"><path d="M 16.640625 0 L 358.640625 0 L 358.640625 375 L 16.640625 375 Z M 16.640625 0 " clip-rule="nonzero"/></clipPath></defs><g clip-path="url(#7eba037df7)"><path fill="#c21b2b" d="M 307.765625 192.078125 L 308.488281 193.347656 L 309.125 193.347656 L 309.351562 192.621094 L 309.257812 191.667969 L 310.257812 191.894531 L 311.164062 193.164062 L 311.164062 194.117188 L 312.523438 194.117188 L 312.523438 192.9375 L 313.382812 192.394531 L 313.382812 191.351562 L 314.019531 191.035156 L 314.5625 191.035156 L 315.105469 191.761719 L 315.515625 191.035156 L 315.515625 188.585938 L 315.105469 187.410156 L 314.789062 184.464844 L 314.789062 182.332031 L 314.152344 182.242188 L 313.835938 181.0625 L 315.515625 181.0625 L 316.148438 180.972656 L 316.78125 180.113281 C 316.78125 180.113281 317.191406 177.890625 317.328125 177.574219 C 317.417969 177.257812 317.101562 175.351562 317.328125 175.035156 C 317.554688 174.71875 317.328125 172.816406 317.328125 172.816406 L 316.78125 170.367188 L 315.742188 168.871094 L 315.742188 167.828125 L 315.105469 167.242188 L 315.332031 166.46875 C 315.332031 166.46875 315.421875 165.925781 315.742188 165.746094 C 316.058594 165.519531 317.417969 167.242188 317.417969 167.242188 L 317.824219 167.242188 L 318.234375 166.378906 L 319.410156 165.972656 C 319.410156 165.972656 320.136719 166.0625 320.136719 166.515625 C 320.136719 166.921875 320.136719 167.285156 320.136719 167.285156 L 320.863281 167.285156 L 321.722656 166.605469 L 322.765625 166.605469 C 322.765625 166.605469 323.492188 166.878906 323.492188 167.285156 C 323.492188 167.648438 324.214844 168.417969 324.214844 168.417969 L 325.484375 167.285156 L 325.894531 164.929688 C 325.894531 164.929688 326.210938 163.886719 326.4375 163.433594 C 326.664062 163.027344 327.296875 162.074219 327.296875 162.074219 L 327.296875 161.03125 L 327.839844 159.671875 L 327.839844 159.082031 L 328.566406 158.992188 L 329.292969 158.265625 L 329.292969 157.632812 L 329.835938 156.769531 L 329.835938 155.820312 L 330.5625 155.09375 L 331.195312 153.824219 L 331.195312 152.464844 L 330.152344 151.421875 C 330.152344 151.421875 329.292969 151.332031 329.429688 150.878906 C 329.519531 150.472656 329.835938 149.835938 329.835938 149.835938 L 329.925781 147.84375 L 331.195312 147.433594 L 331.738281 146.710938 L 332.148438 145.441406 L 332.871094 144.398438 L 333.914062 143.671875 L 333.914062 142.628906 C 333.914062 142.628906 333.914062 142.3125 333.914062 141.996094 C 333.914062 141.679688 334.140625 141.136719 334.457031 140.816406 C 334.777344 140.5 335.09375 140.09375 335.09375 140.09375 L 334.457031 138.824219 L 334.140625 137.011719 L 333.824219 135.652344 L 334.367188 133.839844 L 335.09375 132.660156 C 335.09375 132.660156 335.320312 132.433594 335.636719 132.34375 C 335.953125 132.25 336.996094 132.023438 336.996094 132.023438 L 338.582031 130.03125 C 338.582031 130.03125 339.308594 129.394531 339.625 129.394531 C 339.941406 129.394531 340.894531 128.355469 340.894531 128.355469 L 341.4375 127.402344 L 342.480469 127.3125 C 342.480469 127.3125 342.707031 127.3125 343.117188 126.902344 C 343.523438 126.496094 343.75 125.632812 343.75 125.632812 C 343.75 125.632812 344.609375 124.910156 344.792969 124.59375 C 345.019531 124.273438 345.972656 123.414062 346.289062 123.414062 C 346.605469 123.414062 348.824219 122.871094 348.824219 122.871094 L 349.867188 122.550781 L 349.867188 121.917969 L 350.820312 122.007812 L 351.679688 121.78125 L 352.722656 121.691406 L 353.359375 122.324219 L 353.359375 124.003906 L 354.21875 123.914062 L 355.171875 124.457031 L 356.03125 124.773438 L 356.578125 124.367188 L 356.578125 123.414062 L 355.214844 121.511719 L 353.855469 120.558594 L 353.539062 118.246094 L 353.765625 117.523438 L 354.628906 116.886719 L 356.214844 114.757812 L 357.710938 114.03125 L 358.34375 114.03125 L 358.34375 112.128906 C 357.9375 111.265625 357.390625 110.226562 357.390625 110.226562 L 356.03125 108.320312 L 354.671875 108.230469 L 353.8125 108.636719 L 352.769531 108.546875 L 352.042969 108.546875 L 350.867188 108.457031 L 350.320312 107.914062 L 349.597656 107.914062 L 348.328125 108.320312 C 348.328125 108.320312 348.011719 108.003906 347.691406 108.410156 C 347.375 108.820312 347.464844 109.273438 347.464844 109.273438 L 347.148438 109.90625 L 345.5625 109.273438 L 345.878906 107.914062 L 346.199219 106.871094 L 346.515625 105.917969 L 346.921875 105.058594 L 347.558594 104.515625 L 347.964844 103.96875 L 348.507812 103.019531 L 346.921875 102.292969 L 346.289062 100.796875 L 344.609375 101.113281 L 344.382812 102.382812 L 343.207031 102.792969 L 343.207031 101.207031 L 342.164062 100.570312 L 342.570312 100.027344 L 343.117188 99.394531 L 343.660156 98.441406 L 344.703125 98.441406 L 343.34375 97.578125 L 341.53125 95.449219 L 339.21875 96.945312 L 336.363281 98.757812 L 335.953125 100.117188 L 335.320312 101.160156 L 335.320312 101.792969 L 333.007812 101.792969 L 331.832031 100.84375 L 330.96875 100.84375 L 329.066406 100.933594 L 327.707031 100.300781 L 326.347656 99.257812 L 325.621094 99.167969 L 324.894531 100.117188 C 324.894531 100.117188 324.488281 100.433594 323.851562 100.660156 C 323.21875 100.886719 322.585938 100.886719 322.585938 100.886719 L 319.320312 105.011719 L 317.644531 106.507812 L 315.832031 107.777344 L 313.929688 108.09375 C 313.929688 108.09375 313.066406 108.957031 312.566406 108.957031 C 312.070312 108.957031 310.4375 109.183594 310.4375 109.183594 L 310.121094 110.542969 L 309.394531 112.355469 C 309.394531 112.355469 309.804688 112.671875 308.851562 113.308594 C 307.898438 113.941406 305.679688 114.894531 305.679688 114.894531 L 304.953125 115.84375 L 305.363281 116.796875 L 305.042969 118.382812 L 304.183594 119.015625 L 303.140625 119.878906 L 301.464844 120.195312 L 300.105469 120.511719 L 299.242188 120.738281 L 297.972656 121.464844 C 297.972656 121.464844 296.933594 121.691406 296.613281 121.691406 C 296.296875 121.691406 295.027344 121.78125 295.027344 121.78125 L 293.757812 121.691406 L 293.351562 124.003906 L 293.667969 124.726562 L 294.9375 125.589844 L 296.433594 125.5 L 297.292969 125.179688 L 298.15625 124.953125 L 299.332031 125.90625 L 299.652344 127.085938 L 299.015625 127.945312 L 298.066406 128.808594 L 298.609375 129.441406 L 299.558594 130.621094 L 299.878906 132.117188 C 299.878906 132.117188 300.285156 133.066406 299.652344 133.066406 C 299.015625 133.066406 297.746094 132.75 297.746094 132.75 L 297.339844 133.703125 L 296.296875 133.066406 L 295.890625 133.792969 L 294.621094 134.019531 C 294.621094 134.019531 293.984375 134.109375 293.578125 134.246094 C 293.171875 134.382812 292.535156 133.519531 292.535156 133.519531 L 291.902344 133.609375 L 291.039062 134.335938 C 291.039062 134.335938 289.996094 134.335938 289.679688 134.335938 C 289.363281 134.335938 288.320312 134.425781 288.320312 134.425781 L 285.464844 134.425781 L 283.019531 134.335938 L 281.429688 133.066406 L 278.667969 132.660156 L 278.347656 133.839844 C 278.347656 133.839844 277.804688 134.15625 277.398438 134.246094 C 276.988281 134.335938 275.722656 134.652344 275.722656 134.652344 L 274.132812 135.199219 L 272.867188 135.605469 L 271.824219 135.605469 L 270.328125 135.515625 L 269.148438 135.605469 L 269.691406 134.746094 L 268.515625 134.835938 L 267.96875 134.425781 C 267.96875 134.425781 267.335938 133.566406 267.019531 133.703125 C 266.703125 133.792969 266.066406 134.246094 266.066406 134.246094 L 264.390625 134.5625 L 263.847656 133.703125 L 262.035156 132.839844 L 261.808594 132.207031 L 261.488281 131.253906 L 260.945312 130.304688 L 261.171875 129.261719 L 261.488281 128.398438 L 261.808594 127.855469 L 261.488281 126.996094 L 260.855469 126.132812 L 260.628906 125.179688 C 260.628906 125.179688 260.539062 124.546875 260.71875 124.140625 C 260.945312 123.730469 261.261719 122.960938 261.261719 122.960938 L 261.355469 121.78125 L 261.582031 120.605469 L 261.355469 119.109375 L 260.808594 118.246094 L 258.996094 117.929688 L 258.273438 117.613281 L 257.320312 117.839844 L 256.140625 118.5625 L 255.28125 118.65625 L 254.871094 119.199219 L 252.5625 119.425781 L 252.5625 120.058594 L 253.105469 121.101562 L 253.105469 122.28125 L 252.878906 123.640625 L 251.519531 125.136719 L 251.425781 126.949219 L 251.335938 129.261719 L 251.5625 131.390625 L 252.425781 131.074219 L 252.515625 132.023438 L 252.921875 133.839844 L 254.101562 135.515625 C 254.101562 135.515625 253.785156 135.515625 253.558594 136.238281 C 253.332031 136.964844 252.921875 138.054688 252.921875 138.054688 L 251.746094 138.28125 L 251.199219 140.273438 L 249.523438 138.6875 L 249.207031 139.320312 L 247.304688 139.640625 L 245.945312 140.046875 L 244.265625 139.640625 L 243.542969 140.589844 C 242.90625 140.816406 242.5 140.183594 242.5 140.183594 C 241.636719 139.867188 240.820312 139.640625 240.820312 139.640625 L 240.730469 138.144531 L 240.097656 138.054688 L 239.6875 138.597656 L 239.144531 138.914062 L 238.601562 139.320312 L 237.875 139.414062 L 237.015625 139.503906 L 236.378906 140.136719 L 235.65625 138.960938 L 232.890625 137.601562 L 231.621094 137.28125 L 230.988281 137.507812 L 229.175781 137.28125 L 227.90625 137.375 L 227.042969 137.917969 L 226.5 138.234375 C 226.5 138.234375 226.816406 137.054688 224.914062 137.191406 L 225.230469 134.425781 L 223.417969 134.425781 L 221.605469 135.785156 L 220.109375 136.105469 L 219.25 134.425781 L 217.753906 134.335938 L 217.117188 133.382812 L 215.304688 132.839844 L 213.402344 132.433594 C 213.402344 132.433594 212.132812 132.75 212.859375 131.074219 C 213.582031 129.394531 212.765625 128.308594 212.765625 128.308594 L 210.320312 127.992188 L 208.960938 127.449219 L 208.417969 126.585938 L 207.375 126.179688 L 206.421875 125.769531 L 206.421875 126.8125 L 204.925781 126.8125 L 202.933594 127.449219 L 201.664062 126.902344 L 199.757812 126.496094 L 198.398438 126.496094 L 197.992188 127.222656 L 196.722656 128.488281 L 195.542969 126.675781 L 194.683594 126.585938 L 192.871094 126.042969 L 191.917969 125.726562 L 190.421875 125.632812 L 190.742188 124.367188 L 190.105469 123.003906 L 188.835938 122.914062 L 187.660156 123.230469 L 187.113281 123.140625 L 185.4375 122.28125 L 184.984375 122.191406 L 182.445312 120.511719 L 181.585938 120.285156 C 181.585938 120.285156 181.175781 121.238281 180.859375 121.238281 C 180.542969 121.238281 179.910156 120.285156 179.589844 120.285156 C 179.273438 120.285156 177.28125 119.242188 177.28125 119.242188 L 175.601562 117.75 L 174.878906 117.023438 L 173.699219 116.933594 L 173.925781 114.667969 L 172.65625 114.121094 L 171.613281 113.714844 L 170.753906 113.171875 L 169.257812 113.171875 L 169.664062 112.445312 L 168.625 112.355469 L 167.582031 111.3125 L 166.539062 110.359375 L 165.769531 110.132812 L 165.449219 111.492188 L 164.726562 110.769531 L 163.367188 110.542969 L 162.640625 109.046875 L 161.460938 108.410156 L 162.730469 106.101562 L 163.910156 103.96875 L 164.632812 102.929688 L 165.496094 102.835938 L 164.769531 100.527344 C 164.769531 100.527344 164.679688 100.207031 164.769531 99.664062 C 164.859375 99.121094 164.226562 99.257812 164.859375 99.121094 C 165.496094 99.03125 166.039062 99.121094 166.039062 98.804688 C 166.039062 98.484375 166.039062 95.632812 166.039062 95.632812 L 167.308594 95.3125 C 167.308594 95.3125 168.261719 94.363281 168.261719 94.042969 C 168.261719 93.726562 168.667969 93.09375 168.667969 93.09375 L 169.847656 93.003906 L 170.796875 91.414062 L 171.433594 91.097656 L 172.292969 91.007812 L 172.292969 90.191406 L 171.117188 89.332031 L 169.9375 89.015625 L 168.894531 87.109375 L 168.035156 86.882812 C 167.398438 86.65625 166.039062 85.839844 166.039062 85.839844 L 164.363281 85.75 L 163.726562 85.023438 L 163.5 83.4375 C 163.5 83.4375 162.777344 82.894531 162.550781 82.578125 C 162.324219 82.261719 161.28125 82.035156 161.28125 82.035156 L 159.785156 80.539062 L 158.742188 79.8125 C 158.742188 79.8125 158.425781 79.902344 158.015625 79.902344 C 157.609375 79.902344 156.839844 80.128906 156.839844 80.128906 L 155.660156 79.8125 L 155.117188 78.953125 L 154.253906 78.226562 L 153.53125 76.957031 L 152.804688 76.730469 L 153.03125 74.917969 L 152.171875 74.917969 L 150.675781 72.605469 L 150.765625 73.875 L 150.132812 74.511719 L 149.496094 75.371094 L 149 75.371094 L 148.773438 74.011719 L 147.910156 73.695312 L 147.59375 72.425781 L 148.136719 71.15625 L 148.453125 69.886719 L 148.046875 68.84375 L 147.503906 67.894531 L 147.183594 67.03125 L 146.957031 65.855469 L 146.007812 65.535156 L 146.234375 63.542969 L 144.964844 62.589844 L 145.507812 61.867188 L 145.507812 59.960938 L 143.695312 59.554688 L 144.601562 58.964844 L 145.691406 57.878906 L 148.679688 57.878906 L 148.679688 59.597656 L 149.949219 61.320312 L 152.761719 59.597656 L 155.117188 59.597656 L 157.066406 57.015625 L 157.066406 54.886719 L 154.9375 53.164062 L 155.570312 50.582031 C 155.570312 50.582031 154.074219 49.539062 153.441406 49.539062 C 152.804688 49.539062 150.8125 48.179688 150.8125 48.179688 L 150.71875 44.6875 L 152.625 44.144531 L 151.988281 43.601562 L 151.128906 41.0625 L 150.855469 39.613281 L 157.066406 39.613281 L 157.066406 37.480469 L 158.0625 36.03125 L 158.289062 34.492188 L 160.511719 34.492188 L 160.511719 32.179688 L 163.320312 31.316406 L 164.816406 28.328125 L 164.816406 25.742188 L 166.085938 23.613281 L 166.085938 21.890625 L 164.996094 19.941406 L 163.273438 18.855469 L 162.867188 17.585938 L 157.699219 17.585938 L 157.292969 16.496094 L 155.34375 16.496094 L 153.214844 17.359375 L 147.867188 17.359375 C 147.867188 17.359375 147.003906 17.585938 146.371094 17.765625 C 145.734375 17.992188 143.558594 19.035156 143.558594 19.035156 L 140.976562 20.125 L 138.167969 20.351562 L 135.582031 20.984375 L 133.453125 20.578125 L 135.808594 18.855469 L 133.453125 17.359375 L 129.78125 15.410156 L 127.242188 11.785156 L 125.519531 11.785156 C 125.519531 11.785156 125.519531 10.695312 124.660156 10.0625 C 123.800781 9.425781 121.667969 8.339844 121.667969 8.339844 L 119.71875 7.070312 L 119.71875 5.347656 L 118.449219 4.261719 L 116.957031 3.171875 L 115.234375 3.171875 L 115.234375 0.859375 L 112.421875 0.859375 L 110.925781 0 L 103.628906 0 L 101.273438 0.859375 L 97.828125 1.085938 L 97.828125 2.582031 L 96.742188 3.445312 L 94.15625 2.355469 L 91.574219 1.949219 L 88.582031 4.53125 L 86.453125 5.800781 L 85.59375 6.890625 L 83.234375 8.609375 L 83.234375 11.785156 L 85.59375 12.644531 L 89.261719 12.417969 L 90.125 15.410156 L 92.074219 16.90625 L 96.152344 17.765625 L 95.746094 18.855469 L 94.882812 20.804688 L 98.328125 22.296875 L 98.960938 23.386719 L 97.691406 26.195312 L 94.476562 27.058594 L 94.066406 29.1875 L 91.484375 29.414062 L 91.890625 31.542969 L 91.890625 38.207031 L 92.117188 42.511719 L 91.710938 46.183594 C 91.710938 46.183594 90.441406 47.453125 91.710938 48.3125 C 92.980469 49.175781 94.519531 50.035156 94.519531 50.035156 L 97.105469 50.898438 L 99.234375 51.984375 L 99.460938 53.253906 L 101.410156 53.480469 L 103.359375 52.621094 L 102.949219 56.0625 L 104.898438 56.925781 L 106.394531 57.558594 L 108.523438 58.421875 L 110.882812 58.828125 L 110.019531 61.414062 L 108.75 63.132812 L 104.671875 63.132812 L 103.722656 64.359375 C 103.722656 64.359375 102.132812 64.902344 101.273438 65.761719 C 100.414062 66.625 100.414062 66.625 100.414062 66.625 L 101.453125 69.253906 L 100.414062 70.296875 L 102 70.296875 C 102 70.296875 100.59375 71.339844 100.59375 72.246094 C 100.59375 73.105469 100.414062 74.191406 100.414062 74.191406 L 101.816406 74.191406 C 101.816406 74.191406 102.542969 75.507812 102 75.507812 C 101.453125 75.507812 101.453125 75.507812 101.453125 75.507812 L 99.640625 76.640625 L 97.511719 78.046875 L 96.96875 79.316406 L 95.5625 80.582031 C 94.566406 81.445312 93.886719 82.261719 93.886719 82.261719 L 92.480469 82.261719 L 93.476562 83.121094 L 92.480469 83.121094 L 92.890625 84.527344 L 92.480469 85.386719 L 92.480469 86.65625 L 90.941406 87.789062 L 90.078125 88.921875 C 90.078125 88.921875 88.945312 88.652344 88.265625 88.921875 C 87.539062 89.195312 86.726562 88.0625 86.316406 88.921875 C 85.910156 89.785156 85.59375 91.054688 85.59375 91.054688 L 83.507812 96.671875 C 83.507812 96.671875 81.105469 98.621094 80.832031 99.484375 C 80.5625 100.34375 79.699219 101.160156 78.882812 101.613281 C 78.023438 102.019531 75.078125 103.425781 75.078125 103.425781 C 75.078125 103.425781 71.859375 104.96875 71.722656 105.691406 C 71.585938 106.417969 71.585938 106.417969 71.585938 106.417969 C 71.585938 106.417969 71.316406 109.089844 70.863281 109.089844 C 70.410156 109.089844 68.1875 110.632812 68.1875 110.632812 C 68.1875 110.632812 67.054688 113.714844 66.238281 114.167969 C 65.378906 114.574219 63.699219 113.625 61.480469 114.167969 C 59.214844 114.710938 57.539062 114.894531 56.855469 115.300781 C 56.132812 115.707031 53.503906 116.976562 53.050781 115.300781 C 52.640625 113.625 52.324219 112.21875 52.324219 112.21875 C 52.324219 112.21875 51.191406 110.089844 48.789062 111.222656 C 46.386719 112.355469 46.523438 113.488281 46.386719 113.894531 C 46.25 114.304688 44.574219 116.160156 44.574219 116.160156 C 44.574219 116.160156 44.03125 117.429688 42.445312 118.5625 C 40.902344 119.695312 39.632812 119.5625 38.910156 120.964844 C 38.183594 122.371094 38.773438 122.777344 38.183594 123.640625 C 37.640625 124.5 35.917969 123.777344 37.324219 125.453125 C 38.726562 127.128906 39.453125 127.128906 40.132812 127.71875 C 40.859375 128.261719 41.675781 129.394531 41.675781 129.394531 C 41.675781 129.394531 44.484375 128.261719 44.890625 130.121094 C 45.300781 131.933594 45.617188 131.664062 45.027344 132.929688 C 44.484375 134.199219 43.757812 134.746094 43.757812 134.746094 L 43.714844 137.328125 L 44.4375 138.1875 L 44.757812 139.230469 C 44.757812 139.230469 44.210938 140.410156 45.390625 140.726562 C 46.570312 141.042969 49.921875 141.042969 49.921875 141.363281 C 49.921875 141.679688 49.199219 143.808594 49.695312 144.625 C 50.238281 145.484375 51.828125 148.75 52.144531 149.382812 C 52.460938 150.019531 55.089844 154.234375 55.089844 154.234375 C 55.089844 154.234375 55.949219 154.957031 55.089844 154.957031 C 54.230469 154.957031 53.730469 155.503906 53.730469 155.503906 C 53.730469 155.503906 54.273438 156.136719 54.136719 156.679688 C 54.046875 157.222656 53.59375 157.316406 53.503906 157.632812 C 53.414062 157.949219 53.820312 158.039062 53.820312 158.039062 L 55.316406 158.039062 L 53.957031 159.308594 C 53.957031 159.308594 52.460938 158.132812 52.28125 159.308594 C 52.054688 160.488281 50.375 160.667969 50.375 160.667969 L 48.382812 159.71875 L 48.382812 157.722656 L 45.4375 157.949219 C 45.4375 157.949219 45.210938 158.492188 44.890625 158.492188 L 43.398438 158.492188 C 42.988281 158.492188 41.085938 159.988281 41.085938 159.988281 L 37.820312 159.988281 L 36.007812 157.859375 L 33.246094 157.769531 L 32.519531 158.085938 L 31.882812 157.859375 L 30.707031 157.859375 L 29.753906 157.949219 C 29.753906 157.949219 29.4375 157.222656 28.710938 157.632812 C 27.988281 158.039062 27.667969 156.769531 27.667969 156.769531 L 26.71875 157.8125 L 26.71875 156.226562 L 25.992188 156.226562 L 24.949219 160.667969 L 19.828125 160.667969 L 18.875 161.394531 L 18.015625 161.394531 L 17.15625 163.070312 L 16.65625 163.933594 L 16.65625 165.109375 C 16.65625 165.109375 18.332031 165.203125 18.785156 165.109375 C 19.195312 165.019531 19.332031 163.523438 19.738281 163.433594 C 20.144531 163.34375 21.414062 163.523438 21.414062 163.523438 L 23.726562 162.253906 L 23.320312 163.296875 L 22.140625 164.160156 L 20.328125 165.15625 L 20.101562 166.289062 L 19.828125 167.195312 C 19.828125 167.195312 21.503906 166.652344 20.464844 168.148438 C 20.464844 168.148438 21.640625 167.285156 21.640625 168.148438 C 21.640625 169.007812 21.097656 169.734375 21.097656 169.734375 L 22.367188 169.007812 L 22.367188 171.230469 L 22.773438 172.273438 C 22.773438 172.273438 23.816406 173.132812 24.453125 173.449219 C 25.085938 173.765625 28.347656 175.582031 28.667969 176.304688 C 28.984375 177.03125 29.9375 176.304688 30.34375 176.847656 C 30.75 177.394531 31.070312 178.207031 31.070312 178.207031 C 31.070312 178.207031 31.792969 177.257812 32.746094 177.484375 C 33.699219 177.710938 35.285156 178.433594 35.601562 178.207031 C 35.917969 177.980469 37.277344 177.484375 37.277344 177.484375 L 38.457031 177.167969 L 39 176.214844 L 40.996094 176.214844 L 40.542969 175.035156 L 41.085938 174.3125 L 42.035156 175.808594 L 42.898438 173.902344 L 43.941406 174.3125 L 44.800781 174.628906 L 44.394531 176.304688 L 43.214844 177.574219 L 43.214844 178.253906 L 41.855469 179.570312 L 40.902344 180.519531 L 40.8125 181.472656 L 36.824219 181.472656 L 37.550781 182.105469 L 35.871094 183.464844 L 35.238281 182.605469 L 34.195312 182.832031 L 34.195312 183.464844 L 33.246094 183.875 L 32.699219 183.148438 L 31.203125 183.375 L 31.203125 183.917969 L 30.164062 183.511719 L 28.574219 183.917969 L 27.625 184.554688 L 27.398438 183.511719 L 28.121094 182.46875 L 26.445312 182.558594 L 25.902344 182.332031 L 26.761719 181.382812 L 25.8125 181.15625 C 25.8125 181.15625 25.175781 181.699219 25.085938 182.015625 C 24.996094 182.332031 24.132812 183.375 24.996094 184.554688 C 25.855469 185.730469 32.292969 194.027344 32.292969 194.027344 L 33.878906 195.386719 L 34.511719 195.386719 L 34.738281 197.472656 L 40.632812 202.863281 L 42.308594 204.359375 L 45.074219 205.628906 L 50.148438 205.628906 L 52.144531 204.769531 L 53.320312 204.769531 L 54.683594 203.816406 L 55.316406 203.410156 L 56.496094 203.089844 C 56.496094 203.089844 57.21875 203.179688 57.539062 203.179688 C 57.855469 203.179688 58.804688 202.546875 58.804688 202.546875 C 58.804688 202.546875 60.300781 202.230469 60.710938 201.914062 C 61.117188 201.59375 61.660156 200.960938 61.660156 200.960938 L 62.296875 200.960938 L 62.523438 199.917969 L 64.109375 198.332031 C 64.109375 198.332031 64.96875 197.472656 64.96875 197.0625 C 64.96875 196.65625 64.96875 195.386719 64.96875 195.386719 L 65.695312 194.84375 L 65.289062 192.710938 L 65.0625 191.667969 L 66.328125 189.765625 L 65.378906 189.222656 L 65.921875 188.269531 L 66.875 188.585938 L 67.507812 188.585938 L 68.144531 188.179688 L 67.191406 187.773438 L 68.050781 187.136719 L 69.230469 187.363281 C 69.230469 187.363281 71.042969 188.40625 71.359375 188.40625 C 71.679688 188.40625 73.671875 187.773438 73.671875 187.773438 L 72.492188 189.039062 L 71.132812 189.132812 L 69.320312 188.269531 L 68.144531 189.949219 L 68.867188 190.265625 L 68.640625 190.988281 L 68.550781 191.851562 L 69.503906 192.078125 L 70.769531 191.535156 L 71.722656 191.761719 L 71.179688 192.621094 L 70.136719 192.621094 L 68.640625 192.847656 L 68.414062 194.433594 L 68.097656 195.386719 L 70.316406 195.929688 L 68.414062 196.339844 L 68.640625 197.199219 L 69.503906 196.882812 L 70.996094 196.246094 L 69.820312 198.058594 L 69.09375 198.378906 L 69.003906 199.328125 L 68.914062 199.964844 L 68.460938 200.417969 L 68.730469 201.097656 L 68.640625 202.003906 L 69.910156 202.273438 L 69.003906 203.046875 L 70.679688 203.046875 L 69.683594 203.636719 L 69.863281 204.722656 L 71.132812 204.722656 L 71.226562 205.222656 L 70.316406 205.628906 L 70.226562 206.21875 L 70.542969 206.71875 L 71.632812 206.71875 L 71.453125 207.488281 L 70.589844 207.488281 L 70.183594 209.84375 L 69.910156 210.613281 L 70 211.023438 L 69.730469 211.519531 L 69.230469 211.929688 L 68.730469 213.015625 L 67.871094 213.425781 L 67.691406 214.105469 L 68.007812 214.601562 L 67.328125 214.921875 L 67.007812 215.78125 L 67.691406 217.140625 L 66.691406 216.640625 L 66.511719 217.140625 C 66.511719 217.140625 67.28125 217.457031 67.28125 217.730469 C 67.28125 218.003906 66.601562 218.589844 66.601562 218.589844 L 66.601562 219.179688 L 66.511719 219.679688 L 66.78125 220.085938 L 66.78125 220.675781 C 66.78125 220.675781 66.691406 220.949219 66.511719 221.265625 C 66.328125 221.582031 66.238281 222.261719 66.238281 222.261719 L 66.917969 222.261719 L 67.417969 221.765625 L 68.097656 222.261719 L 67.328125 222.761719 L 66.648438 223.351562 L 66.964844 223.847656 L 66.964844 224.753906 L 68.550781 225.074219 L 66.78125 225.660156 L 67.101562 227.519531 C 67.101562 227.519531 67.78125 228.019531 68.007812 228.019531 C 68.277344 228.019531 68.867188 228.019531 68.867188 228.019531 L 68.277344 229.195312 L 67.6875 230.464844 L 68.957031 230.964844 L 69.050781 231.464844 C 69.050781 231.464844 68.777344 231.371094 68.460938 231.464844 C 68.144531 231.554688 67.6875 231.464844 67.6875 231.464844 L 67.191406 231.507812 C 67.191406 231.507812 67.101562 232.144531 67.101562 232.550781 C 67.101562 232.957031 67.691406 234.226562 67.691406 234.226562 L 67.960938 235 L 67.28125 235 L 67.460938 236.945312 L 68.050781 236.945312 L 67.871094 238.035156 L 68.957031 238.035156 L 68.777344 238.625 L 67.417969 238.625 L 67.234375 239.121094 L 68.097656 239.121094 L 67.917969 240.300781 L 68.097656 241.207031 L 68.1875 241.976562 L 68.6875 241.976562 L 68.1875 242.566406 L 68.1875 243.472656 L 69.050781 244.242188 L 69.230469 245.015625 L 69.050781 246.871094 L 70.046875 247.191406 L 69.277344 247.777344 L 69.863281 249.046875 L 69.773438 249.820312 L 69.277344 250.816406 L 70.136719 250.816406 L 69.863281 251.3125 L 69.546875 251.8125 L 70.046875 252.402344 L 70.453125 252.402344 L 69.863281 253.082031 L 69.59375 253.488281 L 70 253.808594 L 70.089844 254.488281 L 69.683594 254.488281 L 69.773438 255.167969 L 70.453125 255.167969 L 70.453125 255.664062 L 69.773438 255.664062 L 70.183594 256.527344 L 70 260.558594 L 70.589844 261.148438 L 70.5 263.1875 L 70.996094 264.367188 L 70.816406 265.726562 L 71.40625 266.40625 L 70.726562 267.402344 L 71.316406 267.992188 L 72.085938 268.582031 L 72.945312 271.121094 L 74.214844 273.976562 L 74.894531 274.746094 L 75.484375 274.746094 L 74.625 275.515625 L 75.984375 276.875 L 76.390625 277.738281 C 76.390625 277.738281 76.574219 278.914062 76.390625 279.1875 C 76.210938 279.460938 76.210938 279.460938 76.210938 279.460938 L 77.660156 282.179688 L 78.339844 283.085938 L 77.433594 283.492188 C 77.433594 283.492188 76.664062 283.765625 76.933594 283.902344 C 77.207031 284.082031 77.933594 284.761719 77.933594 284.761719 L 78.703125 284.355469 L 79.019531 285.214844 L 79.925781 285.214844 L 80.425781 286.574219 L 80.695312 287.664062 L 81.558594 288.253906 L 81.242188 288.933594 L 81.648438 290.109375 L 82.058594 290.789062 L 82.238281 291.695312 L 82.238281 292.46875 L 81.832031 293.328125 C 81.832031 293.328125 83.597656 295.097656 83.871094 295.867188 C 84.140625 296.636719 83.777344 298.132812 83.777344 298.132812 L 84.777344 298.132812 C 84.777344 298.132812 85.046875 298.722656 84.777344 298.722656 C 84.503906 298.722656 84.503906 298.722656 84.503906 298.722656 C 84.503906 298.722656 84.414062 299.582031 84.414062 299.808594 C 84.414062 300.035156 84.59375 300.988281 84.59375 300.988281 L 84.414062 301.757812 L 83.550781 302.347656 L 84.324219 302.9375 L 85.230469 304.703125 L 85.046875 307.921875 L 85.546875 307.921875 L 85.820312 308.421875 C 85.820312 308.421875 86.136719 309.960938 86.226562 310.1875 C 86.316406 310.460938 87.222656 313.40625 87.222656 313.40625 L 88.085938 314.949219 L 89.261719 319.933594 L 89.671875 321.472656 L 90.757812 321.882812 L 91.257812 322.472656 L 91.9375 322.472656 L 91.257812 323.242188 L 92.117188 324.148438 L 93.296875 325.007812 L 93.976562 325.78125 L 94.746094 326.277344 L 95.019531 327.820312 C 95.019531 327.820312 95.199219 328.226562 95.199219 328.679688 C 95.199219 329.089844 95.199219 329.585938 95.199219 329.585938 L 95.699219 329.585938 L 96.695312 330.945312 L 97.105469 330.945312 L 97.105469 332.984375 L 98.011719 332.984375 L 97.148438 333.757812 L 98.238281 336.023438 L 98.417969 337.699219 L 98.691406 338.789062 L 98.824219 339.332031 L 99.324219 338.652344 L 99.914062 339.332031 L 99.640625 339.921875 L 98.960938 340.238281 L 98.960938 340.917969 L 99.550781 341.777344 L 100.546875 342.457031 L 100.546875 343.457031 C 100.546875 343.457031 100.820312 344.816406 100.820312 345.132812 C 100.820312 345.449219 101.589844 346.402344 101.589844 346.402344 L 101.863281 345.8125 L 102.542969 346.402344 L 102.359375 347.171875 L 101.679688 347.171875 L 101.863281 348.167969 C 101.863281 348.167969 101.589844 348.941406 102.132812 349.074219 C 102.632812 349.257812 103.402344 349.980469 103.402344 349.980469 L 103.992188 350.84375 L 103.902344 352.019531 L 103.992188 353.019531 L 104.175781 353.425781 L 104.445312 354.875 L 105.125 354.875 L 105.535156 355.464844 L 104.855469 355.464844 L 103.585938 355.148438 L 103.269531 353.019531 L 103.085938 351.339844 L 102.679688 350.253906 L 102.769531 354.96875 L 103.175781 356.824219 L 104.039062 358.683594 L 104.355469 359.863281 C 104.355469 359.863281 104.855469 360.179688 104.945312 360.859375 C 105.035156 361.539062 105.125 362.308594 105.125 362.308594 L 105.308594 363.082031 L 106.167969 362.492188 L 106.757812 362.492188 L 106.9375 363.082031 L 106.03125 363.667969 L 105.941406 364.347656 L 107.390625 364.347656 L 107.300781 364.9375 L 106.894531 365.617188 L 108.164062 367.386719 L 109.523438 368.65625 C 109.523438 368.65625 110.429688 369.515625 110.882812 370.015625 C 111.289062 370.511719 112.332031 372.054688 112.332031 372.054688 C 112.332031 372.054688 112.738281 372.644531 113.421875 373.140625 C 114.101562 373.640625 115.277344 374.230469 115.277344 374.230469 L 116.863281 374.726562 C 116.863281 374.726562 118.222656 374.457031 118.449219 374.726562 C 118.722656 375 119.128906 374.636719 119.355469 374.726562 C 119.628906 374.820312 119.945312 374.140625 119.945312 374.140625 L 121.214844 374.046875 L 122.121094 373.460938 L 122.710938 372.191406 C 122.710938 372.191406 123.574219 372.191406 123.800781 372.097656 C 124.070312 372.007812 125.25 371.691406 125.25 371.691406 L 126.335938 370.152344 L 126.335938 369.0625 L 126.609375 368.292969 C 126.609375 368.292969 126.789062 367.613281 127.015625 367.386719 C 127.289062 367.113281 127.425781 366.707031 127.425781 366.707031 L 127.515625 363.667969 L 128.785156 362.898438 L 129.691406 362.988281 L 130.371094 362.128906 C 131.050781 361.628906 132.910156 361.222656 133.226562 361.222656 C 133.542969 361.222656 133.722656 361.132812 134.132812 361.132812 C 134.539062 361.132812 134.632812 360.722656 134.632812 360.722656 L 136.082031 360.226562 L 137.757812 360.042969 L 138.664062 360.042969 L 139.84375 360.226562 L 140.839844 360.226562 L 141.703125 360.542969 L 142.382812 360.542969 L 144.058594 361.539062 L 144.148438 360.679688 L 143.242188 360.40625 L 143.0625 359.546875 L 142.199219 359.636719 L 140.660156 359.636719 L 139.796875 359.453125 L 138.210938 358.773438 L 137.441406 357.6875 L 137.351562 356.328125 L 137.667969 355.464844 L 139.527344 352.929688 L 140.703125 351.339844 L 141.703125 350.34375 L 142.472656 349.847656 C 142.472656 349.847656 142.15625 349.527344 142.15625 349.167969 C 142.15625 348.804688 142.5625 347.898438 142.5625 347.898438 L 143.152344 346.628906 L 144.332031 346.539062 L 146.277344 346.539062 L 146.371094 345.859375 L 148.546875 346.128906 L 149.132812 346.128906 L 149.90625 346.3125 L 149.8125 346.808594 L 150.402344 346.039062 L 149.8125 331.171875 C 149.8125 331.171875 149.40625 329.902344 149.40625 329.632812 C 149.40625 329.359375 149.40625 329.359375 149.496094 328.769531 C 149.585938 328.179688 149.679688 327.183594 149.679688 326.914062 C 149.679688 326.640625 150.675781 324.285156 150.675781 324.285156 L 150.765625 323.605469 L 150.265625 323.015625 L 150.265625 322.425781 L 151.355469 323.015625 L 151.445312 321.65625 L 152.894531 320.476562 L 154.074219 319.027344 L 153.800781 317.757812 L 154.980469 316.988281 L 155.253906 316.214844 L 155.660156 314.855469 L 156.160156 313.859375 L 156.070312 311.140625 L 156.386719 309.691406 L 156.65625 308.238281 L 156.929688 307.105469 L 156.160156 305.339844 L 154.800781 304.34375 L 154.617188 302.574219 L 154.347656 301.394531 L 154.347656 299.945312 L 154.84375 299.945312 L 155.164062 300.941406 L 155.164062 301.714844 L 155.480469 302.574219 L 155.886719 303.753906 L 156.296875 304.75 L 156.882812 304.75 C 156.882812 304.75 156.703125 304.160156 156.613281 303.886719 C 156.523438 303.617188 156.339844 302.347656 156.339844 302.347656 L 156.160156 300.988281 L 155.976562 299.402344 L 155.796875 298.222656 C 155.796875 298.222656 155.617188 297.136719 155.617188 296.773438 C 155.617188 296.410156 155.433594 295.683594 155.433594 295.414062 C 155.433594 295.140625 155.117188 294.417969 155.117188 294.417969 L 155.796875 292.875 C 155.796875 292.875 156.203125 292.695312 156.203125 292.195312 C 156.203125 291.695312 156.113281 290.246094 156.203125 290.019531 C 156.296875 289.746094 156.523438 289.25 156.203125 288.75 C 155.886719 288.253906 155.296875 286.03125 155.296875 286.03125 L 154.980469 283.902344 L 155.660156 281.363281 L 157.335938 278.144531 L 158.246094 276.96875 L 159.152344 274.699219 L 160.738281 274.699219 L 161.824219 273.839844 L 164 273.660156 L 164.273438 275.925781 L 164.679688 275.335938 L 164.863281 276.105469 L 165.269531 275.925781 L 165.449219 275.199219 L 165.675781 274.339844 L 166.039062 275.425781 L 166.628906 275.335938 L 166.628906 274.339844 L 168.078125 273.339844 L 168.941406 272.164062 L 169.347656 271.164062 L 169.847656 270.667969 L 170.4375 269.082031 L 170.84375 268.808594 L 172.429688 268.628906 C 172.429688 268.628906 172.839844 268.808594 173.019531 268.535156 C 173.199219 268.265625 173.019531 267.855469 173.019531 267.855469 L 174.015625 267.765625 L 175.285156 268.628906 L 175.785156 268.21875 L 175.785156 268.988281 L 176.464844 269.082031 L 177.824219 268.761719 L 179.09375 267.992188 L 179.773438 267.585938 L 182.492188 266.496094 L 182.898438 265.726562 L 182.898438 263.550781 L 182.582031 262.78125 L 182.492188 261.601562 L 183.351562 261.105469 L 183.351562 263.234375 L 184.214844 261.875 L 184.214844 261.011719 L 183.351562 260.152344 L 184.804688 259.472656 L 186.390625 258.113281 L 187.660156 257.25 L 188.746094 256.074219 L 191.285156 254.894531 C 191.285156 254.894531 192.28125 254.578125 192.871094 254.394531 C 193.460938 254.214844 194.140625 253.988281 194.140625 253.988281 L 194.140625 253.308594 L 195.410156 252.628906 C 195.410156 252.628906 195.726562 251.765625 195.90625 251.539062 C 196.089844 251.269531 198.535156 248.914062 200.394531 247.824219 C 202.253906 246.738281 204.972656 244.789062 204.972656 244.789062 L 205.832031 244.109375 L 205.832031 242.65625 C 205.832031 242.65625 208.550781 241.480469 209.1875 240.890625 C 209.867188 240.300781 210.046875 239.214844 210.046875 239.214844 L 210.820312 238.125 L 211.5 237.265625 L 213.039062 235.996094 L 213.355469 235.316406 L 213.355469 234.636719 L 214.714844 233.546875 C 214.714844 233.546875 216.074219 231.101562 216.257812 230.828125 C 216.4375 230.554688 218.796875 229.242188 218.796875 229.242188 L 220.472656 227.882812 L 221.832031 227.203125 L 222.917969 226.703125 L 225.546875 225.707031 L 228.675781 224.4375 C 228.675781 224.4375 230.625 224.164062 231.394531 223.847656 C 232.164062 223.53125 233.253906 223.167969 233.570312 222.488281 C 233.886719 221.808594 233.84375 220.042969 234.566406 220.042969 C 235.339844 220.042969 236.335938 219.769531 236.605469 219.632812 C 236.878906 219.453125 237.875 218.773438 237.875 218.773438 L 238.375 217.683594 L 238.375 216.777344 L 237.785156 216.007812 L 241.09375 213.878906 L 241.863281 212.335938 C 241.863281 212.335938 241.273438 212.746094 240.957031 212.835938 C 240.640625 212.925781 239.960938 213.332031 239.960938 213.332031 L 238.875 213.515625 L 239.054688 212.335938 L 240.414062 212.15625 C 240.414062 212.15625 241.09375 212.15625 241.003906 211.65625 C 240.914062 211.160156 240.234375 210.386719 240.097656 210.070312 C 239.914062 209.753906 239.417969 208.484375 239.417969 208.484375 L 239.914062 205.628906 C 239.914062 205.628906 241.003906 203.589844 241.957031 203.179688 C 242.863281 202.773438 244.675781 202.09375 244.675781 202.09375 L 246.441406 202.273438 L 248.300781 200.78125 L 250.429688 200.191406 L 251.15625 198.875 L 251.878906 198.332031 C 251.878906 198.332031 252.425781 197.152344 252.832031 196.972656 C 253.242188 196.746094 253.875 196.246094 253.875 196.246094 L 254.417969 194.976562 L 255.234375 195.160156 L 254.734375 192.984375 L 255.550781 192.394531 L 255.914062 194.570312 L 255.507812 196.15625 L 255.414062 197.199219 L 255.960938 197.832031 L 255.960938 198.558594 L 256.820312 197.605469 L 257.546875 196.972656 L 258.722656 197.699219 L 259.269531 197.0625 L 259.902344 194.34375 L 261.535156 194.480469 C 261.535156 194.480469 261.988281 193.164062 262.394531 193.300781 C 262.804688 193.390625 263.121094 192.53125 263.121094 192.53125 L 263.800781 192.214844 L 264.84375 192.304688 L 265.207031 192.710938 L 265.613281 193.390625 L 265.703125 193.664062 C 265.792969 193.074219 264.433594 190.582031 264.933594 190.265625 C 264.933594 190.265625 264.980469 189.039062 264.796875 188.859375 C 264.617188 188.679688 263.847656 187.09375 263.847656 187.09375 L 263.527344 185.777344 L 263.664062 184.78125 L 263.710938 184.238281 L 262.757812 182.785156 L 262.757812 181.609375 L 264.074219 179.929688 L 263.121094 179.570312 L 262.03125 179.613281 L 261.714844 180.023438 L 261.171875 180.15625 L 260.992188 178.027344 L 261.398438 177.074219 L 261.625 176.667969 L 261.398438 176.167969 L 260.128906 175.671875 L 259.496094 175.035156 L 259.132812 175.398438 L 259.085938 172.046875 L 260.21875 171.863281 L 260.855469 170.503906 L 261.445312 169.734375 L 261.488281 168.738281 L 261.171875 167.648438 L 260.808594 166.695312 L 260.265625 166.335938 L 258.816406 166.199219 L 257.546875 165.789062 L 256.050781 165.789062 L 256.050781 165.203125 L 254.917969 164.292969 L 253.921875 163.886719 L 253.601562 162.980469 C 253.601562 162.980469 253.46875 162.664062 253.285156 162.664062 C 253.105469 162.664062 252.46875 161.894531 252.46875 161.894531 C 252.46875 161.894531 252.832031 161.347656 253.015625 161.167969 C 253.195312 160.984375 253.601562 160.171875 253.601562 160.171875 L 253.558594 158.132812 L 255.417969 158.175781 L 255.460938 159.082031 L 256.457031 159.21875 L 255.960938 158.628906 L 256.003906 158.085938 L 256.820312 158.222656 L 257.003906 157.40625 L 257.636719 157.359375 L 257.589844 155.503906 L 261.308594 155.320312 L 261.308594 154.957031 L 262.941406 154.957031 L 263.347656 154.414062 L 263.394531 153.6875 L 263.527344 152.78125 L 262.894531 152.648438 L 262.757812 153.371094 L 262.394531 153.507812 L 261.671875 152.691406 L 260.71875 150.605469 C 260.71875 150.605469 260.355469 152.554688 258.632812 151.742188 C 256.910156 150.925781 257.003906 150.289062 257.003906 150.289062 L 256.820312 148.976562 L 255.097656 148.023438 L 253.195312 147.980469 L 253.242188 145.710938 L 253.875 144.988281 L 253.828125 144.488281 L 253.785156 143.582031 L 255.417969 142.449219 L 256.140625 141.816406 L 256.277344 141.042969 L 256.503906 140.726562 L 257.5 140.589844 L 257.363281 139.640625 L 256.457031 139.503906 L 256.050781 139.003906 L 255.644531 138.234375 L 255.597656 137.871094 L 256.1875 136.875 L 257.09375 138.507812 L 257.910156 138.640625 L 257.910156 139.414062 L 258.996094 139.367188 L 258.859375 139.957031 L 259.8125 140.09375 L 259.949219 141.089844 L 259.632812 141.589844 L 259.40625 142.132812 L 260.3125 142.132812 L 260.945312 141.542969 L 261.851562 141.316406 L 262.351562 141.722656 L 263.484375 141.769531 L 262.578125 140.320312 L 261.941406 139.546875 L 262.261719 139.320312 L 263.527344 139.277344 L 263.527344 139.820312 L 264.300781 140.136719 L 264.617188 140.5 L 264.617188 142.402344 C 264.617188 142.402344 266.835938 144.445312 267.425781 144.445312 C 268.015625 144.445312 269.691406 144.578125 269.691406 144.578125 L 270.191406 143.761719 L 270.191406 143.21875 L 270.734375 142.449219 L 271.371094 141.859375 L 272.546875 142.359375 L 272.773438 143.535156 L 272.59375 144.308594 L 273.363281 145.03125 L 273.136719 145.984375 L 272.957031 146.890625 L 273.320312 147.886719 L 273.136719 151.105469 L 273.273438 152.421875 L 274.089844 152.828125 C 274.089844 152.828125 275.71875 152.875 275.902344 153.007812 C 276.082031 153.144531 277.082031 153.78125 277.082031 153.78125 L 278.441406 154.007812 L 279.574219 154.324219 L 288.59375 154.503906 C 288.59375 154.503906 290.222656 155.050781 290.496094 154.550781 C 290.8125 154.050781 291.3125 154.050781 291.808594 154.324219 C 292.308594 154.550781 292.308594 154.824219 292.988281 154.640625 C 293.714844 154.460938 294.078125 154.867188 294.078125 154.867188 L 295.890625 154.824219 L 295.933594 154.414062 L 301.148438 154.367188 L 302.28125 155.367188 L 304.09375 155.503906 L 304.410156 155.863281 L 304.363281 156.953125 L 305.542969 157.089844 L 305.542969 158.449219 L 304.457031 158.402344 L 302.597656 157.449219 L 302.460938 158.628906 L 303.09375 159.128906 L 303.277344 159.671875 L 303.050781 160.171875 L 302.324219 160.804688 L 302.1875 162.617188 L 300.738281 164.429688 L 300.238281 165.066406 L 299.515625 164.429688 L 298.972656 164.746094 L 298.835938 165.5625 L 298.519531 165.882812 L 298.519531 167.921875 L 297.339844 166.96875 L 296.839844 166.921875 L 296.660156 167.511719 L 296.117188 167.558594 L 295.570312 166.832031 L 295.390625 167.421875 L 295.027344 168.054688 L 294.394531 168.554688 L 292.851562 168.511719 L 292.261719 168.554688 L 292.582031 169.644531 L 290.949219 169.960938 L 291.3125 171.683594 L 290.40625 172.589844 L 290.269531 173.539062 L 291.175781 173.859375 L 290.996094 175.21875 L 291.945312 176.214844 L 291.902344 177.210938 L 291.855469 177.800781 L 292.398438 178.570312 L 292.355469 180.65625 C 292.355469 180.65625 293.078125 181.15625 293.125 180.972656 C 293.167969 180.792969 293.125 178.84375 293.125 178.84375 L 293.441406 178.34375 C 293.441406 178.34375 294.210938 178.117188 294.257812 178.570312 C 294.304688 179.070312 294.4375 179.34375 294.4375 179.34375 L 294.574219 181.382812 C 294.574219 181.382812 294.710938 181.699219 295.390625 181.925781 C 296.117188 182.152344 296.660156 182.425781 297.066406 181.878906 C 297.476562 181.335938 297.65625 181.472656 297.703125 180.746094 C 297.746094 180.023438 297.292969 178.933594 297.292969 178.796875 C 297.292969 178.617188 297.25 177.980469 297.25 177.980469 L 297.972656 177.03125 L 298.609375 176.035156 L 299.242188 175.988281 L 299.015625 174.992188 L 298.789062 174.175781 L 298.835938 172.542969 C 298.835938 172.542969 299.46875 172.40625 299.558594 173.269531 C 299.605469 174.085938 300.285156 173.585938 300.285156 173.585938 L 301.054688 172.953125 L 301.644531 172.769531 L 302.007812 173.085938 L 302.371094 172.679688 L 302.914062 171.910156 L 303.640625 172.046875 L 303.640625 173.179688 L 303.683594 173.949219 L 303.503906 175.808594 L 304.5 176.53125 L 304.363281 180.609375 L 304.683594 181.515625 L 305 182.652344 L 306.949219 186.910156 L 307.492188 188.542969 Z M 307.765625 192.078125 " fill-opacity="1" fill-rule="nonzero"/></g></svg>