<svg width="140" height="72" viewBox="0 0 140 72" fill="none" xmlns="http://www.w3.org/2000/svg">
<path fill-rule="evenodd" clip-rule="evenodd" d="M124.513 48.6004C117.931 59.0448 104.623 62.8074 93.5409 57.3591V57.3551C87.7629 54.519 83.4429 49.6097 81.3739 43.5285C81.0939 42.7111 80.8649 41.8671 80.6729 41.0363L80.0099 38.1562L72.2329 51.8536L72.5229 52.4095C76.0549 59.139 81.5429 64.4697 88.3899 67.8244C93.3329 70.2551 98.6179 71.4871 104.095 71.4871C117.866 71.4871 130.178 63.8336 136.232 51.5177C136.534 50.9084 136.813 50.2859 137.076 49.6619L137.75 48.0631H124.851L124.513 48.6004Z" fill="#DE0021"/>
<path fill-rule="evenodd" clip-rule="evenodd" d="M119.908 3.67634C111.342 -0.530586 101.653 -1.14897 92.623 1.93476C86.143 4.1454 80.614 7.9869 76.639 13.0443C73.822 16.6254 71.611 20.6548 69.468 24.559L60.475 40.975C57.674 46.1363 55.03 51.0109 50.427 54.6498C42.05 61.2829 30.1564 61.4964 21.5179 55.1762C14.9351 50.343 11.3483 42.807 11.6818 34.4977C11.8004 31.5122 12.5341 28.5041 13.8047 25.7976C17.3378 18.2548 24.0044 13.2096 32.09 11.9604C33.2991 11.7737 34.5498 11.6787 35.8057 11.6787C40.935 11.6787 45.834 13.2897 49.975 16.3401C53.238 18.7283 55.827 21.8696 57.539 25.4964H40.117L33.4952 37.163H57.638L67.631 19.5497L67.335 18.991C64.797 14.219 61.278 10.159 56.874 6.9241C49.171 1.2829 39.736 -1.02912 30.3072 0.428214C20.8724 1.89208 12.5672 6.9321 6.91907 14.623C1.27777 22.3257 -1.02882 31.7644 0.424377 41.2041C1.89228 50.6484 6.93387 58.9482 14.618 64.5764C20.7874 69.1069 28.0671 71.5015 35.6738 71.5015C37.534 71.5015 39.392 71.3575 41.201 71.0737C49.553 69.7641 57.082 65.6122 62.398 59.3802C66.422 54.6657 69.289 49.1187 72.062 43.7549L72.679 42.5602C75.714 36.7121 78.975 30.5428 82.543 25.0312C83.179 24.0469 83.858 23.0774 84.582 22.1363C87.908 17.8149 91.627 14.871 95.633 13.3894C102.103 10.9936 108.903 11.2615 114.77 14.143C119.696 16.5605 123.603 20.555 125.924 25.4964H108.811L102.169 37.163H139.887L139.894 36.0174C139.966 22.3775 132.122 9.6829 119.908 3.67634Z" fill="#DE0021"/>
</svg>
