<svg width="352" height="113" viewBox="0 0 352 113" fill="none" xmlns="http://www.w3.org/2000/svg">
<path fill-rule="evenodd" clip-rule="evenodd" d="M339.722 8.79602H341.678C342.612 8.79602 343.25 8.65736 343.59 8.37883C343.931 8.09869 344.1 7.72948 344.1 7.27108C344.1 6.97468 344.019 6.71098 343.855 6.47738C343.691 6.24298 343.464 6.06949 343.172 5.95496C342.88 5.83896 342.342 5.78149 341.555 5.78149H339.722V8.79602ZM338.11 14.4188V4.42965H341.542C342.715 4.42965 343.564 4.52029 344.088 4.70549C344.614 4.88962 345.031 5.21228 345.344 5.67082C345.655 6.13068 345.811 6.6187 345.811 7.13497C345.811 7.86564 345.551 8.50018 345.03 9.04285C344.51 9.58298 343.818 9.88684 342.958 9.95231C343.31 10.1 343.592 10.2762 343.806 10.4814C344.207 10.8763 344.699 11.5363 345.282 12.463L346.5 14.4188H344.531L343.646 12.8443C342.948 11.6053 342.387 10.8295 341.96 10.5188C341.666 10.2894 341.235 10.1734 340.668 10.1734H339.722V14.4188H338.11ZM342.182 1.53752C340.878 1.53752 339.608 1.87243 338.374 2.54016C337.139 3.20963 336.174 4.16432 335.476 5.40698C334.78 6.64965 334.431 7.9431 334.431 9.28817C334.431 10.6254 334.774 11.907 335.459 13.1323C336.143 14.3588 337.1 15.315 338.331 15.9987C339.562 16.6843 340.846 17.0267 342.182 17.0267C343.519 17.0267 344.803 16.6843 346.032 15.9987C347.263 15.315 348.218 14.3588 348.899 13.1323C349.58 11.907 349.92 10.6254 349.92 9.28817C349.92 7.9431 349.574 6.64965 348.88 5.40698C348.188 4.16432 347.222 3.20963 345.983 2.54016C344.746 1.87243 343.478 1.53752 342.182 1.53752ZM342.182 0.000427246C343.74 0.000427246 345.262 0.400279 346.747 1.19881C348.231 1.99895 349.387 3.1431 350.215 4.6311C351.043 6.12017 351.459 7.67203 351.459 9.28817C351.459 10.887 351.05 12.4256 350.234 13.9015C349.418 15.3788 348.274 16.524 346.802 17.34C345.33 18.156 343.79 18.5643 342.182 18.5643C340.575 18.5643 339.034 18.156 337.563 17.34C336.09 16.524 334.944 15.3788 334.125 13.9015C333.304 12.4256 332.894 10.887 332.894 9.28817C332.894 7.67203 333.31 6.12017 334.142 4.6311C334.974 3.1431 336.134 1.99895 337.618 1.19881C339.102 0.400279 340.624 0.000427246 342.182 0.000427246Z" fill="#1B1918"/>
<path fill-rule="evenodd" clip-rule="evenodd" d="M188.136 54.8084C181.554 65.2528 168.246 69.0154 157.164 63.5671V63.5631C151.386 60.727 147.066 55.8176 144.997 49.7364C144.717 48.919 144.488 48.075 144.296 47.2442L143.633 44.3642L135.856 58.0616L136.146 58.6175C139.678 65.347 145.166 70.6776 152.013 74.0323C156.956 76.463 162.241 77.6951 167.718 77.6951C181.489 77.6951 193.801 70.0415 199.855 57.7256C200.157 57.1163 200.436 56.4939 200.699 55.8699L201.373 54.2711H188.474L188.136 54.8084Z" fill="#BD0924"/>
<path fill-rule="evenodd" clip-rule="evenodd" d="M28.1548 0V11.4535H44.4612V38.8347C44.4612 52.1054 42.1545 65.6692 25.0385 65.6692C19.3212 65.6692 14.6959 64.0747 11.292 60.932L10.7054 60.3892L0 65.8054L0.850667 66.9081C6.37707 74.076 14.516 77.7093 25.0385 77.7093C45.1427 77.7093 56.6746 63.5399 56.6746 38.8347V0H28.1548Z" fill="#1B1918"/>
<path fill-rule="evenodd" clip-rule="evenodd" d="M183.531 9.88414C174.965 5.67721 165.276 5.05883 156.246 8.14256C149.766 10.3532 144.237 14.1947 140.262 19.2521C137.445 22.8332 135.234 26.8626 133.091 30.7668L124.098 47.1828C121.297 52.3441 118.653 57.2187 114.05 60.8576C105.673 67.4907 93.7794 67.7042 85.1409 61.384C78.5581 56.5508 74.9713 49.0148 75.3048 40.7055C75.4234 37.72 76.1571 34.7119 77.4277 32.0054C80.9608 24.4626 87.6274 19.4174 95.713 18.1682C96.9221 17.9815 98.1728 17.8865 99.4287 17.8865C104.558 17.8865 109.457 19.4975 113.598 22.5479C116.861 24.9361 119.45 28.0774 121.162 31.7042H103.74L97.1182 43.3708H121.261L131.254 25.7575L130.958 25.1988C128.42 20.4268 124.901 16.3668 120.497 13.1319C112.794 7.4907 103.359 5.17868 93.9302 6.63601C84.4954 8.09988 76.1902 13.1399 70.5421 20.8308C64.9008 28.5335 62.5942 37.9722 64.0474 47.4119C65.5153 56.8562 70.5569 65.156 78.241 70.7842C84.4104 75.3147 91.6901 77.7093 99.2968 77.7093C101.157 77.7093 103.015 77.5653 104.824 77.2815C113.176 75.9719 120.705 71.82 126.021 65.588C130.045 60.8735 132.912 55.3265 135.685 49.9627L136.302 48.768C139.337 42.9199 142.598 36.7506 146.166 31.239C146.802 30.2547 147.481 29.2852 148.205 28.3441C151.531 24.0227 155.25 21.0788 159.256 19.5972C165.726 17.2014 172.526 17.4693 178.393 20.3508C183.319 22.7683 187.226 26.7628 189.547 31.7042H172.434L165.792 43.3708H203.51L203.517 42.2252C203.589 28.5853 195.745 15.8907 183.531 9.88414Z" fill="#BD0924"/>
<path fill-rule="evenodd" clip-rule="evenodd" d="M240.914 37.9336L268.258 6.19348H252.466L223.894 39.5018V0.00976562H210.468V77.7098H223.894V46.2656H231.156L256.538 77.7098H273.537L240.914 37.9336Z" fill="#1B1918"/>
<path fill-rule="evenodd" clip-rule="evenodd" d="M319.918 56.1868C316.114 61.375 310.522 64.772 304.166 65.7493C297.805 66.7268 291.448 65.176 286.262 61.3735C281.072 57.5708 277.673 51.9749 276.697 45.6188C275.716 39.2613 277.27 32.9042 281.075 27.7148C284.877 22.5267 290.473 19.1308 296.829 18.1523C298.066 17.9603 299.315 17.8628 300.552 17.8628C305.666 17.8628 310.569 19.4763 314.731 22.5283C319.918 26.3296 323.317 31.9256 324.298 38.2828C325.277 44.6415 323.722 51.0002 319.918 56.1868ZM335.832 36.5041C334.375 27.0667 329.334 18.7616 321.633 13.1149C313.934 7.4736 304.494 5.16693 295.051 6.61493C285.613 8.0708 277.306 13.1135 271.661 20.8161C266.016 28.5176 263.707 37.9573 265.164 47.3948C266.614 56.8335 271.658 65.1402 279.362 70.7867C285.542 75.3162 292.825 77.7093 300.422 77.7093C302.265 77.7093 304.122 77.5654 305.942 77.2842C315.38 75.8283 323.686 70.7867 329.334 63.0867C334.978 55.3814 337.285 45.9401 335.832 36.5041Z" fill="#1B1918"/>
<path fill-rule="evenodd" clip-rule="evenodd" d="M6.63261 104.474L9.68567 95.6764L12.7391 104.474H6.63261ZM15.4056 112.157H19.3178L11.0085 90.034H8.36328L0.0539551 112.157H3.96566L5.42314 107.955H13.9471L15.4056 112.157Z" fill="#1B1918"/>
<path fill-rule="evenodd" clip-rule="evenodd" d="M47.8489 100.014V104.106C47.8489 105.751 47.5246 107.199 46.8687 108.451C46.2169 109.704 45.2901 110.672 44.0981 111.358C42.9059 112.042 41.5261 112.385 39.9526 112.385C38.3702 112.385 36.9755 112.061 35.7702 111.42C34.5607 110.773 33.6261 109.864 32.9646 108.686C32.2994 107.51 31.9661 106.148 31.9661 104.596V98.0677C31.9661 96.4252 32.2942 94.9795 32.9473 93.7304C33.6034 92.4835 34.5249 91.5156 35.7166 90.8315C36.9086 90.1478 38.2889 89.8064 39.8619 89.8064C41.1489 89.8064 42.3447 90.0781 43.4366 90.6183C44.5353 91.1621 45.4473 91.9302 46.1767 92.925C46.9089 93.9208 47.4033 95.0702 47.6686 96.3783H43.7435C43.5689 95.7691 43.2899 95.2489 42.8981 94.8128C42.5073 94.3755 42.0473 94.0421 41.5129 93.8143C40.9822 93.5875 40.4299 93.473 39.8619 93.473C39.0311 93.473 38.3021 93.6623 37.6781 94.0421C37.0567 94.4235 36.5714 94.9595 36.2249 95.6542C35.8833 96.3488 35.7074 97.1543 35.7074 98.0677V104.596C35.7074 105.415 35.8833 106.14 36.2339 106.764C36.5847 107.386 37.0794 107.869 37.7273 108.209C38.3702 108.547 39.1113 108.717 39.9526 108.717C40.7849 108.717 41.5166 108.54 42.1474 108.176C42.7714 107.818 43.2582 107.294 43.5995 106.609C43.9366 105.926 44.1074 105.112 44.1074 104.167V103.5H40.182V100.014H47.8489Z" fill="#1B1918"/>
<path fill-rule="evenodd" clip-rule="evenodd" d="M67.1798 93.504H72.6707C73.1878 93.504 73.6413 93.6264 74.0318 93.8747C74.4241 94.1239 74.7253 94.4772 74.9373 94.9333C75.152 95.3892 75.2559 95.9172 75.2559 96.5132C75.2466 97.1226 75.1346 97.6558 74.9226 98.112C74.7063 98.5678 74.4067 98.9227 74.0201 99.1691C73.6281 99.42 73.1787 99.5426 72.6707 99.5426H67.1798V93.504ZM75.6067 112.156H79.9731L74.7733 102.746C75.2253 102.615 75.6573 102.447 76.0571 102.22C77.0051 101.683 77.7387 100.922 78.2641 99.9387C78.7853 98.9544 79.0465 97.8134 79.0465 96.5132C79.0465 95.2279 78.7853 94.0906 78.2641 93.1079C77.7387 92.1226 77.0051 91.364 76.0651 90.8255C75.1214 90.2853 74.0238 90.02 72.7785 90.02H67.1798H65.0478H63.5413V112.156H67.1798V103.029H70.7561L75.6067 112.156Z" fill="#1B1918"/>
<path fill-rule="evenodd" clip-rule="evenodd" d="M98.6928 112.157H94.9836V90.0351H98.6928V112.157Z" fill="#1B1918"/>
<path fill-rule="evenodd" clip-rule="evenodd" d="M129.082 90.034H113.168V93.5164H119.315V112.157H122.935V93.5164H129.082V90.034Z" fill="#1B1918"/>
<path fill-rule="evenodd" clip-rule="evenodd" d="M157.619 93.5168V90.0344H146.742H144.61H143.103V112.156H144.61V112.157H157.619V108.67H146.742V102.906H155.945V99.4355H146.742V93.5167L157.619 93.5168Z" fill="#1B1918"/>
<path fill-rule="evenodd" clip-rule="evenodd" d="M176.226 111.387C175.043 110.723 174.135 109.772 173.5 108.533C172.866 107.299 172.547 105.831 172.547 104.137V98.0681C172.547 96.3719 172.866 94.908 173.5 93.6695C174.135 92.4332 175.043 91.48 176.226 90.8096C177.403 90.1387 178.798 89.8041 180.398 89.8041C181.73 89.8041 182.935 90.0896 184.014 90.6572C185.092 91.2253 185.992 92.0439 186.707 93.1136C187.42 94.1855 187.912 95.4508 188.172 96.9108H184.432C184.248 96.2015 183.96 95.58 183.564 95.0452C183.168 94.5162 182.699 94.1053 182.156 93.8225C181.612 93.5372 181.028 93.3959 180.398 93.3959C179.558 93.3959 178.83 93.5867 178.218 93.9682C177.602 94.3479 177.129 94.8869 176.792 95.5868C176.459 96.288 176.292 97.1135 176.292 98.0681V104.137C176.292 105.091 176.459 105.916 176.792 106.619C177.129 107.317 177.602 107.856 178.218 108.231C178.83 108.605 179.558 108.793 180.398 108.793C181.036 108.793 181.631 108.657 182.175 108.383C182.714 108.109 183.187 107.708 183.583 107.181C183.974 106.653 184.26 106.021 184.432 105.277H188.172C187.899 106.74 187.404 108.007 186.69 109.077C185.975 110.145 185.08 110.965 184 111.532C182.916 112.099 181.72 112.385 180.398 112.385C178.798 112.385 177.403 112.052 176.226 111.387Z" fill="#1B1918"/>
<path fill-rule="evenodd" clip-rule="evenodd" d="M215.599 90.034V99.482H206.894V90.034H203.254V112.155H206.894V102.966H215.599V112.155H219.233V90.034H215.599Z" fill="#1B1918"/>
<path fill-rule="evenodd" clip-rule="evenodd" d="M258.97 108.67V90.0332H255.332V112.154H257.036V112.156H269.846V108.67L258.97 108.67Z" fill="#1B1918"/>
<path fill-rule="evenodd" clip-rule="evenodd" d="M288.112 108.67V90.0332H284.474V112.154H286.179V112.156H298.99V108.67L288.112 108.67Z" fill="#1B1918"/>
<path fill-rule="evenodd" clip-rule="evenodd" d="M325.021 98.5379C324.774 99.0364 324.428 99.419 323.988 99.6874C323.548 99.9552 323.029 100.091 322.44 100.091H317.255V93.515H322.44C323.029 93.515 323.548 93.6536 323.996 93.9284C324.441 94.2032 324.783 94.5872 325.031 95.0845C325.273 95.582 325.395 96.1617 325.395 96.8205C325.395 97.4699 325.271 98.0405 325.021 98.5379ZM328.285 93.2579C327.716 92.2336 326.919 91.4419 325.895 90.878C324.873 90.3152 323.685 90.0351 322.337 90.0351H317.255H315.366H313.617V112.156H317.255V103.573H322.337C323.685 103.573 324.873 103.294 325.895 102.737C326.919 102.179 327.716 101.391 328.285 100.373C328.852 99.3539 329.136 98.1697 329.136 96.8205C329.136 95.4712 328.852 94.2844 328.285 93.2579Z" fill="#1B1918"/>
<path fill-rule="evenodd" clip-rule="evenodd" d="M330.736 112.157H334.45V108.444H330.736V112.157Z" fill="#1B1918"/>
</svg>
